<svg xmlns="http://www.w3.org/2000/svg">
<symbol id="close">
<path d="M12 23C18.0751 23 23 18.0751 23 12C23 5.92487 18.0751 1 12 1C5.92487 1 1 5.92487 1 12C1 18.0751 5.92487 23 12 23ZM8.53033 7.46967L12 10.9393L15.4697 7.46967C15.7626 7.17678 16.2374 7.17678 16.5303 7.46967C16.8232 7.76256 16.8232 8.23744 16.5303 8.53033L13.0607 12L16.5303 15.4697C16.8232 15.7626 16.8232 16.2374 16.5303 16.5303C16.2374 16.8232 15.7626 16.8232 15.4697 16.5303L12 13.0607L8.53033 16.5303C8.23744 16.8232 7.76256 16.8232 7.46967 16.5303C7.17678 16.2374 7.17678 15.7626 7.46967 15.4697L10.9393 12L7.46967 8.53033C7.17678 8.23744 7.17678 7.76256 7.46967 7.46967C7.76256 7.17678 8.23744 7.17678 8.53033 7.46967Z"/>
</symbol>
<symbol id="user">
<path fill="none" stroke="var(--light-blue)" stroke-linejoin="miter" stroke-linecap="butt" stroke-miterlimit="4" stroke-width="0.7506" d="M16 27.733c-2.321 0-4.589-0.688-6.519-1.977s-3.433-3.122-4.322-5.266c-0.888-2.144-1.12-4.503-0.668-6.779s1.57-4.367 3.211-6.008c1.641-1.641 3.732-2.758 6.008-3.211s4.635-0.22 6.779 0.668c2.144 0.888 3.976 2.392 5.266 4.322s1.977 4.198 1.977 6.519"></path>
<path fill="none" stroke="var(--light-blue)" stroke-linejoin="miter" stroke-linecap="butt" stroke-miterlimit="4" stroke-width="0.7506" d="M16 1.067c2.953 0 5.841 0.876 8.297 2.517s4.37 3.973 5.5 6.702c1.13 2.729 1.426 5.731 0.85 8.628s-1.998 5.558-4.087 7.646c-2.088 2.089-4.749 3.511-7.646 4.087s-5.899 0.28-8.628-0.85c-2.729-1.13-5.061-3.044-6.702-5.5s-2.517-5.343-2.517-8.297"></path>
<path d="M16.003 10.264c-1.602 0-2.905 1.204-2.905 2.685s1.303 2.685 2.905 2.685 2.905-1.204 2.905-2.685c0-1.48-1.303-2.685-2.905-2.685zM16.003 16.299c-0.968 0-1.878-0.348-2.563-0.981s-1.062-1.474-1.062-2.369c0-0.895 0.377-1.736 1.062-2.368s1.595-0.981 2.563-0.981c0.968 0 1.878 0.348 2.563 0.981s1.062 1.474 1.062 2.369c0 0.895-0.377 1.736-1.062 2.369s-1.595 0.981-2.563 0.981z"></path>
<path d="M10.319 21.735h11.362v-0.372c0-2.345-2.064-4.253-4.602-4.253h-2.158c-2.538 0-4.602 1.908-4.602 4.253v0.372zM22.4 22.4h-12.8v-1.037c0-0.664 0.141-1.308 0.418-1.914 0.268-0.586 0.652-1.112 1.14-1.563s1.058-0.806 1.691-1.054c0.656-0.257 1.353-0.387 2.071-0.387h2.158c0.718 0 1.415 0.13 2.071 0.387 0.634 0.248 1.203 0.602 1.691 1.054s0.872 0.978 1.14 1.563c0.278 0.607 0.418 1.251 0.418 1.914v1.037z"></path>
</symbol>
</svg>